<svg width="375" height="571" viewBox="0 0 375 571" fill="none" xmlns="http://www.w3.org/2000/svg">
<path d="M228.62 839.395C147.899 797.67 115.858 699.326 156.989 619.767L293.395 356.009C301.144 340.931 282.265 326.074 269.281 336.903L-54.5094 607.214C-92.8818 639.28 -147.275 645.012 -192.253 621.776C-253.635 589.99 -278.082 515.209 -246.747 454.711L14.1723 -49.9058C22.7012 -66.5011 -0.277088 -81.4273 -11.9785 -66.9418L-422.102 439.275C-440.553 462.16 -472.857 468.694 -499.267 455.001L-795.836 301.746C-835.427 281.279 -841.897 227.605 -808.03 199.336L-71.3009 -416.066C-20.8162 -458.211 50.5653 -465.761 109.687 -435.257C190.408 -393.532 222.497 -295.283 181.366 -215.724L-41.8825 216.067C-49.6791 231.001 -30.753 246.002 -17.7686 235.173L306.07 -35.2328C409.899 -122.01 560.394 -2.58859 498.308 117.27L290.146 532.958C319.388 530.964 349.505 536.732 377.599 551.17C458.32 592.895 490.361 691.239 449.278 770.703C408.05 850.452 309.341 881.119 228.62 839.395Z" fill="#100F36"/>
</svg>
